<svg width="15" height="14" viewBox="0 0 15 14" fill="none" xmlns="http://www.w3.org/2000/svg">
<path d="M12.25 7C13.4926 7 14.5 5.99264 14.5 4.75V3.25C14.5 2.00736 13.4926 1 12.25 1H3.25C2.00736 1 1 2.00736 1 3.25V4.75C1 5.99264 2.00736 7 3.25 7M12.25 7H3.25M12.25 7C13.4926 7 14.5 8.00736 14.5 9.25V10.75C14.5 11.9926 13.4926 13 12.25 13H3.25C2.00736 13 1 11.9926 1 10.75V9.25C1 8.00736 2.00736 7 3.25 7M4 4V4.0075M4 10V10.0075M7 4H11.5M7 10H11.5" stroke="#434F6D" stroke-linecap="round" stroke-linejoin="round"/>
</svg>
