<svg width="16" height="16" viewBox="0 0 16 16" fill="none" xmlns="http://www.w3.org/2000/svg">
<path d="M10.5 15.5H3C2.33696 15.5 1.70107 15.2366 1.23223 14.7678C0.763392 14.2989 0.5 13.663 0.5 13V12.1667H8.83333V13.8333C8.83333 14.2754 9.00893 14.6993 9.32149 15.0118C9.63405 15.3244 10.058 15.5 10.5 15.5ZM10.5 15.5C10.942 15.5 11.366 15.3244 11.6785 15.0118C11.9911 14.6993 12.1667 14.2754 12.1667 13.8333V2.16667C12.1667 1.83703 12.2644 1.5148 12.4476 1.24072C12.6307 0.966635 12.891 0.753014 13.1955 0.626868C13.5001 0.500722 13.8352 0.467717 14.1585 0.532025C14.4818 0.596334 14.7788 0.755068 15.0118 0.988156C15.2449 1.22124 15.4037 1.51822 15.468 1.84152C15.5323 2.16482 15.4993 2.49993 15.3731 2.80447C15.247 3.10902 15.0334 3.36931 14.7593 3.55245C14.4852 3.73559 14.163 3.83333 13.8333 3.83333H12.1667M13.8333 0.500001H4.66667C4.00363 0.500001 3.36774 0.763393 2.8989 1.23223C2.43006 1.70107 2.16667 2.33696 2.16667 3V12.1667M5.5 3.83333H8.83333M5.5 7.16667H8.83333" stroke="#434F6D" stroke-linecap="round" stroke-linejoin="round"/>
</svg>
