<svg width="17" height="16" viewBox="0 0 17 16" fill="none" xmlns="http://www.w3.org/2000/svg">
<path d="M8 8.00001V8.00834M4.66667 8.00001V8.00834M11.3333 8.00001V8.00834M0.5 14.6667L1.58333 11.4167C0.647037 10.032 0.308328 8.39208 0.630182 6.80199C0.952036 5.2119 1.91255 3.7798 3.33314 2.77197C4.75373 1.76413 6.53772 1.24915 8.35341 1.32277C10.1691 1.39639 11.8929 2.0536 13.2044 3.1722C14.5159 4.29081 15.3257 5.79469 15.4834 7.40423C15.6411 9.01376 15.1358 10.6194 14.0616 11.9227C12.9873 13.2259 11.4172 14.1381 9.64316 14.4895C7.86911 14.841 6.01184 14.6078 4.41667 13.8334L0.5 14.6667Z" stroke="#434F6D" stroke-linecap="round" stroke-linejoin="round"/>
</svg>
