<svg width="42" height="36" viewBox="0 0 42 36" fill="none" xmlns="http://www.w3.org/2000/svg">
<g filter="url(#filter0_bd_133_105)">
<rect width="33.3284" height="28" rx="8" transform="matrix(1 0 0.00127001 0.999999 4 2)" fill="white" fill-opacity="0.3"/>
<rect x="0.500635" y="0.5" width="32.3284" height="27" rx="7.5" transform="matrix(1 0 0.00127001 0.999999 3.99936 2)" stroke="white" stroke-opacity="0.3"/>
<path d="M15.6665 12.6667H26.3332M19.6665 15.3333V19.3333M22.3332 15.3333V19.3333M16.3332 12.6667L16.9998 20.6667C16.9998 21.0203 17.1403 21.3594 17.3904 21.6095C17.6404 21.8595 17.9795 22 18.3332 22H23.6665C24.0201 22 24.3593 21.8595 24.6093 21.6095C24.8594 21.3594 24.9998 21.0203 24.9998 20.6667L25.6665 12.6667M18.9998 12.6667V10.6667C18.9998 10.4899 19.0701 10.3203 19.1951 10.1953C19.3201 10.0702 19.4897 10 19.6665 10H22.3332C22.51 10 22.6796 10.0702 22.8046 10.1953C22.9296 10.3203 22.9998 10.4899 22.9998 10.6667V12.6667" stroke="#434F6D" stroke-linecap="round" stroke-linejoin="round"/>
</g>
<defs>
<filter id="filter0_bd_133_105" x="0.0102539" y="-2" width="41.3438" height="38" filterUnits="userSpaceOnUse" color-interpolation-filters="sRGB">
<feFlood flood-opacity="0" result="BackgroundImageFix"/>
<feGaussianBlur in="BackgroundImageFix" stdDeviation="2"/>
<feComposite in2="SourceAlpha" operator="in" result="effect1_backgroundBlur_133_105"/>
<feColorMatrix in="SourceAlpha" type="matrix" values="0 0 0 0 0 0 0 0 0 0 0 0 0 0 0 0 0 0 127 0" result="hardAlpha"/>
<feOffset dy="2"/>
<feGaussianBlur stdDeviation="2"/>
<feComposite in2="hardAlpha" operator="out"/>
<feColorMatrix type="matrix" values="0 0 0 0 1 0 0 0 0 1 0 0 0 0 1 0 0 0 0.1 0"/>
<feBlend mode="normal" in2="effect1_backgroundBlur_133_105" result="effect2_dropShadow_133_105"/>
<feBlend mode="normal" in="SourceGraphic" in2="effect2_dropShadow_133_105" result="shape"/>
</filter>
</defs>
</svg>
