<svg width="14" height="12" viewBox="0 0 14 12" fill="none" xmlns="http://www.w3.org/2000/svg">
<path d="M4.33333 6.66668L6.33333 5.33334L7.66667 6.66668L9.66667 5.33334M1 11.3334L1.86667 8.7334C1.11763 7.62558 0.846662 6.31367 1.10415 5.0416C1.36163 3.76952 2.13004 2.62384 3.26651 1.81758C4.40298 1.01131 5.83017 0.599328 7.28273 0.658223C8.73528 0.717118 10.1143 1.24289 11.1635 2.13777C12.2127 3.03265 12.8606 4.23576 12.9867 5.52339C13.1128 6.81102 12.7086 8.09555 11.8492 9.13815C10.9899 10.1807 9.73377 10.9105 8.31453 11.1916C6.89529 11.4728 5.40947 11.2863 4.13333 10.6667L1 11.3334Z" stroke="#1857FF" stroke-linecap="round" stroke-linejoin="round"/>
</svg>
