<svg width="16" height="16" viewBox="0 0 16 16" fill="none" xmlns="http://www.w3.org/2000/svg">
<path d="M15.5 15.5L10.5 10.5M6.33333 8.83333V8.84167M6.33333 6.33333C6.54309 6.33344 6.74949 6.28076 6.93354 6.18015C7.11759 6.07954 7.27336 5.93423 7.38651 5.75761C7.49965 5.581 7.56653 5.37874 7.58099 5.16949C7.59545 4.96024 7.55702 4.75071 7.46923 4.56021C7.38145 4.36971 7.24715 4.20436 7.07868 4.0794C6.91022 3.95443 6.71302 3.87387 6.50524 3.84512C6.29747 3.81638 6.0858 3.84039 5.88974 3.91493C5.69368 3.98947 5.51953 4.11215 5.38333 4.27167M12.1667 6.33333C12.1667 9.55499 9.55499 12.1667 6.33333 12.1667C3.11167 12.1667 0.5 9.55499 0.5 6.33333C0.5 3.11167 3.11167 0.5 6.33333 0.5C9.55499 0.5 12.1667 3.11167 12.1667 6.33333Z" stroke="#434F6D" stroke-linecap="round" stroke-linejoin="round"/>
</svg>
