<svg width="16" height="16" viewBox="0 0 16 16" fill="none" xmlns="http://www.w3.org/2000/svg">
<path d="M10.3333 5.49998C10.1824 5.23811 9.96304 5.02223 9.69882 4.87544C9.43459 4.72865 9.13542 4.65647 8.83333 4.66664H7.16667C6.72464 4.66664 6.30072 4.84224 5.98816 5.1548C5.67559 5.46736 5.5 5.89128 5.5 6.33331C5.5 6.77534 5.67559 7.19926 5.98816 7.51182C6.30072 7.82438 6.72464 7.99998 7.16667 7.99998H8.83333C9.27536 7.99998 9.69928 8.17557 10.0118 8.48813C10.3244 8.80069 10.5 9.22462 10.5 9.66664C10.5 10.1087 10.3244 10.5326 10.0118 10.8452C9.69928 11.1577 9.27536 11.3333 8.83333 11.3333H7.16667C6.86458 11.3435 6.56541 11.2713 6.30118 11.1245C6.03696 10.9777 5.81763 10.7618 5.66667 10.5M8 3V4.66667M8 11.3333V13M15.5 8C15.5 12.1421 12.1421 15.5 8 15.5C3.85786 15.5 0.5 12.1421 0.5 8C0.5 3.85786 3.85786 0.5 8 0.5C12.1421 0.5 15.5 3.85786 15.5 8Z" stroke="#434F6D" stroke-linecap="round" stroke-linejoin="round"/>
</svg>
