<svg width="16" height="17" viewBox="0 0 16 17" fill="none" xmlns="http://www.w3.org/2000/svg">
<path d="M8.00016 9.66666C9.38087 9.66666 10.5002 8.54737 10.5002 7.16666C10.5002 5.78595 9.38087 4.66666 8.00016 4.66666C6.61945 4.66666 5.50016 5.78595 5.50016 7.16666C5.50016 8.54737 6.61945 9.66666 8.00016 9.66666Z" stroke="#1857FF" stroke-linecap="round" stroke-linejoin="round"/>
<path d="M12.7143 11.8808L9.1785 15.4166C8.86599 15.7288 8.44232 15.9042 8.00058 15.9042C7.55885 15.9042 7.13518 15.7288 6.82267 15.4166L3.286 11.8808C2.35368 10.9484 1.71878 9.76054 1.46157 8.46734C1.20437 7.17414 1.33641 5.83372 1.841 4.61556C2.3456 3.39741 3.20008 2.35624 4.2964 1.62371C5.39272 0.891183 6.68164 0.500198 8.00017 0.500198C9.31869 0.500198 10.6076 0.891183 11.7039 1.62371C12.8003 2.35624 13.6547 3.39741 14.1593 4.61556C14.6639 5.83372 14.796 7.17414 14.5388 8.46734C14.2816 9.76054 13.6466 10.9484 12.7143 11.8808Z" stroke="#1857FF" stroke-linecap="round" stroke-linejoin="round"/>
</svg>
