<svg width="16" height="16" viewBox="0 0 16 16" fill="none" xmlns="http://www.w3.org/2000/svg">
<path d="M7.16671 12.1667C7.42956 12.2814 7.71326 12.3406 8.00005 12.3406C8.28683 12.3406 8.57053 12.2814 8.83338 12.1667M4.66671 7.16667L6.33338 8.83333M11.3334 7.16667L9.66671 8.83333M8.00005 0.5C4.11338 0.5 1.83671 2.4425 1.44838 5.1625C1.05876 7.67483 1.65599 10.2405 3.11505 12.3225C3.81727 13.349 4.72505 14.2185 5.78088 14.8758C7.16921 15.7092 8.83421 15.7092 10.2225 14.8758C11.2784 14.2185 12.1862 13.349 12.8884 12.3225C14.3415 10.2379 14.9382 7.67459 14.555 5.1625C14.1667 2.44167 11.89 0.5 8.00338 0.5H8.00005Z" stroke="#434F6D" stroke-linecap="round" stroke-linejoin="round"/>
</svg>
