<svg width="148" height="121" viewBox="0 0 148 121" fill="none" xmlns="http://www.w3.org/2000/svg">
<path d="M109.5 55C110.018 52.6701 110.267 49.4021 109.902 47C109.101 47.6667 107.5 49.7 107.5 52.5C107.5 55.3 108.666 56.3333 109.249 56.5C109.314 55.969 109.396 55.4683 109.5 55Z" fill="#434F6D"/>
<path d="M18 72C11.5 66.8333 -1.00001 53.8 0.999994 43C3.49999 29.5 18 34 18.5 42C20 39 24.4 33.7 30 36.5C37 40 34 49.5 30 56C26 62.5 18.5 68.5 18 72Z" fill="#434F6D"/>
<path d="M125 61.5C123.5 59 120.4 52.9 120 48.5C119.5 43 125 39.5 128 46C129.333 44.6667 132.6 42.4 135 44C138 46 136 50 134 52.5C132 55 126.5 59.5 125 61.5Z" fill="#434F6D"/>
<path d="M50 118L49.5149 118.121L49.5359 118.205L49.5839 118.277L50 118ZM44.5 88.5L44.0019 88.5433L44.5 88.5ZM96.6122 70.5V71H96.9218L97.0598 70.7228L96.6122 70.5ZM74.084 87.7226C73.9308 87.9524 73.9929 88.2628 74.2226 88.416C74.4524 88.5692 74.7628 88.5071 74.916 88.2774L74.084 87.7226ZM84.5 78.5L84.7519 78.9319L84.5 78.5ZM96 71.5L95.6 71.2L96 71.5ZM99.5 53.5L99.9615 53.6923L99.5 53.5ZM107 44L106.803 43.5404L107 44ZM109.5 55L109.988 55.1085L109.5 55ZM109 75.5L108.501 75.4706L109 75.5ZM95.5 116.5L95.6167 116.986L95.8682 116.926L95.9642 116.686L95.5 116.5ZM73 120L73.025 120.499L73 120ZM109.249 56.5L109.745 56.5605L109.249 56.5ZM18 72L17.6889 72.3914L18.3716 72.9341L18.495 72.0707L18 72ZM0.999994 43L0.508353 42.909L0.999994 43ZM18.5 42L18.001 42.0312L18.1168 43.8844L18.9472 42.2236L18.5 42ZM30 36.5L29.7764 36.9472L30 36.5ZM24.235 27.924C24.4692 28.0704 24.7776 27.9992 24.924 27.765C25.0704 27.5308 24.9992 27.2224 24.765 27.076L24.235 27.924ZM6.89699 24.0107C6.62678 24.0676 6.45384 24.3328 6.51073 24.603C6.56761 24.8732 6.83279 25.0462 7.10301 24.9893L6.89699 24.0107ZM28.196 21.3969C28.4152 21.5649 28.729 21.5233 28.8969 21.304C29.0649 21.0848 29.0233 20.771 28.804 20.6031L28.196 21.3969ZM5.30404 2.60306C5.08482 2.43515 4.77098 2.47674 4.60306 2.69596C4.43515 2.91518 4.47674 3.22902 4.69596 3.39694L5.30404 2.60306ZM32.0659 15.2481C32.2029 15.4878 32.5083 15.5711 32.7481 15.4341C32.9878 15.2971 33.0711 14.9917 32.9341 14.7519L32.0659 15.2481ZM27.9903 2.90194C27.9361 2.63116 27.6727 2.45555 27.4019 2.50971C27.1312 2.56387 26.9556 2.82728 27.0097 3.09806L27.9903 2.90194ZM125 61.5L124.571 61.7572L124.954 62.3949L125.4 61.8L125 61.5ZM120 48.5L120.498 48.4547L120 48.5ZM128 46L127.546 46.2095L127.847 46.8606L128.354 46.3536L128 46ZM135 44L135.277 43.584L135 44ZM140.8 56.1C140.579 55.9343 140.266 55.9791 140.1 56.2C139.934 56.4209 139.979 56.7343 140.2 56.9L140.8 56.1ZM147.055 57.9969C147.33 57.9664 147.527 57.7192 147.497 57.4448C147.466 57.1703 147.219 56.9726 146.945 57.0031L147.055 57.9969ZM145.624 66.3293C145.806 66.5371 146.121 66.5581 146.329 66.3763C146.537 66.1944 146.558 65.8786 146.376 65.6707L145.624 66.3293ZM139.724 60.0528C139.477 59.9293 139.176 60.0294 139.053 60.2764C138.929 60.5234 139.029 60.8237 139.276 60.9472L139.724 60.0528ZM138.116 67.3201C138.293 67.5322 138.608 67.5609 138.82 67.3841C139.032 67.2073 139.061 66.892 138.884 66.6799L138.116 67.3201ZM136.384 63.6799C136.207 63.4678 135.892 63.4391 135.68 63.6159C135.468 63.7927 135.439 64.108 135.616 64.3201L136.384 63.6799ZM97.9721 62.6403L97.4729 62.6122V62.6122L97.9721 62.6403ZM97.9352 63.2903L98.4343 63.3192V63.3192L97.9352 63.2903ZM50.485 117.879C48.9856 111.881 45.7944 97.6141 44.9981 88.4567L44.0019 88.5433C44.8056 97.7859 48.0143 112.119 49.5149 118.121L50.485 117.879ZM44.9981 88.4567C44.5002 82.7311 44.6252 77.7652 44.5624 72.931C44.4998 68.1061 44.2492 63.4353 42.985 58.3787L42.0149 58.6213C43.2508 63.5647 43.5002 68.1439 43.5625 72.944C43.6247 77.7348 43.4997 82.7689 44.0019 88.5433L44.9981 88.4567ZM42.985 58.3787C41.7443 53.4157 40.6242 45.5782 40.4999 38.9282C40.4377 35.5992 40.626 32.6029 41.1576 30.4232C41.4238 29.3316 41.7679 28.4806 42.1826 27.8985C42.5907 27.3256 43.0422 27.0437 43.5452 26.998L43.4547 26.0021C42.5827 26.0813 41.8936 26.5807 41.3681 27.3183C40.8492 28.0467 40.4667 29.0356 40.1861 30.1862C39.624 32.4909 39.4373 35.5883 39.5001 38.9469C39.6258 45.6718 40.7557 53.5843 42.0149 58.6213L42.985 58.3787ZM43.5452 26.998C44.8117 26.8828 45.8176 27.1699 46.6436 27.7461C47.4802 28.3295 48.1668 29.234 48.738 30.4065C49.8866 32.7642 50.5042 36.065 51.005 39.5707L51.995 39.4293C51.4958 35.9351 50.8633 32.4858 49.637 29.9685C49.0207 28.7035 48.2385 27.6392 47.2157 26.9258C46.1824 26.2051 44.9383 25.8672 43.4547 26.0021L43.5452 26.998ZM51.005 39.5707C51.5004 43.0381 52.0068 47.5822 52.5686 51.1405C52.8502 52.924 53.1513 54.4994 53.4819 55.6043C53.6453 56.1502 53.8275 56.6223 54.0404 56.9507C54.1464 57.1143 54.2837 57.2797 54.4643 57.3898C54.6639 57.5113 54.9078 57.5578 55.1581 57.4744L54.8419 56.5257C54.9047 56.5047 54.965 56.5239 54.9846 56.5358C54.9853 56.5362 54.9463 56.5098 54.8795 56.4067C54.7467 56.2019 54.5969 55.8421 54.4399 55.3176C54.13 54.2819 53.8373 52.7635 53.5564 50.9845C52.9932 47.4179 52.4996 42.9619 51.995 39.4293L51.005 39.5707ZM55.1581 57.4744C55.4065 57.3916 55.5708 57.2054 55.6773 57.034C55.7862 56.8587 55.8673 56.647 55.9311 56.4231C56.059 55.9737 56.1422 55.382 56.1939 54.702C56.2978 53.3355 56.281 51.5147 56.1869 49.5387C55.9986 45.5834 55.4967 40.9388 54.9932 37.9178L54.0068 38.0822C54.5033 41.0613 55.0014 45.6667 55.1881 49.5863C55.2815 51.5479 55.296 53.3208 55.1967 54.6262C55.1469 55.2821 55.0699 55.7958 54.9693 56.1493C54.9188 56.3267 54.8686 56.4407 54.8278 56.5064C54.7847 56.5759 54.781 56.546 54.8419 56.5257L55.1581 57.4744ZM54.9932 37.9178C54.7418 36.4095 54.3648 34.5241 53.9753 32.5068C53.5849 30.4843 53.1803 28.3212 52.8695 26.2387C52.5583 24.1538 52.3434 22.1646 52.3281 20.4876C52.3126 18.7862 52.5053 17.4985 52.9341 16.7481L52.0659 16.252C51.4947 17.2516 51.3124 18.7763 51.3281 20.4968C51.3441 22.2417 51.5667 24.2837 51.8805 26.3863C52.1946 28.4913 52.6026 30.672 52.9934 32.6964C53.3852 34.7259 53.7582 36.5905 54.0068 38.0822L54.9932 37.9178ZM52.9341 16.7481C53.9063 15.0468 54.9657 14.0173 55.9004 13.5774C56.3629 13.3598 56.7821 13.2918 57.1459 13.3395C57.5056 13.3867 57.8437 13.5508 58.1464 13.8536L58.8535 13.1465C58.4063 12.6992 57.8694 12.4258 57.276 12.348C56.6867 12.2707 56.0746 12.3903 55.4746 12.6726C54.2843 13.2327 53.0937 14.4532 52.0659 16.252L52.9341 16.7481ZM58.1464 13.8536C58.2573 13.9644 58.4369 14.2626 58.6651 14.8052C58.8837 15.325 59.1224 16.007 59.3739 16.8197C59.8766 18.4437 60.4203 20.5553 60.9502 22.862C62.01 27.4752 63.0069 32.8346 63.5044 36.5661L64.4956 36.4339C63.9931 32.6654 62.99 27.2748 61.9248 22.6381C61.3922 20.3197 60.8422 18.1814 60.3292 16.5241C60.0729 15.6961 59.8233 14.9797 59.5869 14.4175C59.36 13.8781 59.1177 13.4106 58.8535 13.1465L58.1464 13.8536ZM63.5044 36.5661C64.0033 40.3078 64.2493 44.5169 64.5649 47.7363C64.7209 49.3272 64.8955 50.6925 65.1334 51.603C65.2485 52.0434 65.3964 52.4543 65.6152 52.7229C65.7305 52.8646 65.9012 53.0106 66.1379 53.0579C66.3849 53.1071 66.6064 53.03 66.7773 52.916L66.2226 52.084C66.206 52.0951 66.2518 52.0609 66.3335 52.0772C66.405 52.0914 66.4208 52.1286 66.3907 52.0915C66.3184 52.0028 66.2124 51.7769 66.1009 51.3502C65.8857 50.5263 65.7166 49.2353 65.5601 47.6387C65.2507 44.4831 64.9967 40.1923 64.4956 36.4339L63.5044 36.5661ZM66.7773 52.916C67.1066 52.6965 67.3077 52.3054 67.4445 51.9077C67.5881 51.4902 67.6931 50.9663 67.7694 50.3679C67.9223 49.1687 67.9688 47.5941 67.9374 45.8037C67.8745 42.2183 67.4976 37.7003 66.9966 33.4416L66.0034 33.5584C66.5024 37.7997 66.8755 42.2817 66.9376 45.8213C66.9687 47.5934 66.9214 49.1126 66.7774 50.2415C66.7053 50.8072 66.6111 51.256 66.4988 51.5826C66.3797 51.929 66.2684 52.0535 66.2226 52.084L66.7773 52.916ZM66.9966 33.4416C66.497 29.1951 65.9979 24.4531 65.6861 20.2133C65.3734 15.9606 65.2527 12.2535 65.4969 10.0552L64.5031 9.9448C64.2473 12.2465 64.3765 16.0395 64.6888 20.2867C65.0021 24.5469 65.503 29.305 66.0034 33.5584L66.9966 33.4416ZM65.4969 10.0552C65.7353 7.91 66.6837 6.30153 67.7341 5.52754C68.2563 5.14273 68.781 4.97849 69.2512 5.0142C69.7114 5.04915 70.1837 5.28006 70.6096 5.81236L71.3904 5.18766C70.8163 4.46996 70.1011 4.07587 69.3269 4.01707C68.5628 3.95903 67.8062 4.23229 67.1409 4.72248C65.8163 5.6985 64.7647 7.59002 64.5031 9.9448L65.4969 10.0552ZM70.6096 5.81236C72.5639 8.25531 76.0085 13.6594 76.5009 22.0294L77.4991 21.9706C76.9915 13.3406 73.4361 7.74471 71.3904 5.18766L70.6096 5.81236ZM76.5009 22.0294C76.7505 26.2728 76.8749 31.8809 77.0628 36.8937C77.1566 39.3952 77.2663 41.7469 77.4155 43.6944C77.5636 45.6273 77.7534 47.2069 78.0192 48.1374L78.9808 47.8626C78.7466 47.0431 78.5614 45.5602 78.4126 43.6181C78.2649 41.6906 78.1558 39.3548 78.0621 36.8563C77.8751 31.8691 77.7495 26.2272 77.4991 21.9706L76.5009 22.0294ZM78.0192 48.1374C78.2761 49.0363 78.5752 49.7496 78.9144 50.2495C79.243 50.7338 79.6863 51.125 80.25 51.125C80.8136 51.125 81.257 50.7338 81.5856 50.2495C81.9248 49.7496 82.2239 49.0363 82.4808 48.1374L81.5192 47.8626C81.2761 48.7137 81.0127 49.3129 80.7581 49.688C80.493 50.0787 80.3113 50.125 80.25 50.125C80.1886 50.125 80.007 50.0787 79.7419 49.688C79.4873 49.3129 79.2239 48.7137 78.9808 47.8626L78.0192 48.1374ZM82.4808 48.1374C82.746 47.2089 82.9361 45.6942 83.0843 43.8686C83.2336 42.03 83.3433 39.8343 83.4371 37.5202C83.6251 32.8814 83.7494 27.7749 83.9989 24.0333L83.0011 23.9667C82.7505 27.7251 82.6248 32.8686 82.4379 37.4797C82.3442 39.7907 82.2352 41.97 82.0876 43.7877C81.9389 45.6183 81.754 47.0411 81.5192 47.8626L82.4808 48.1374ZM83.9989 24.0333C84.2512 20.249 84.374 16.31 85.0504 13.297C85.388 11.7931 85.852 10.5806 86.4962 9.75229C87.1222 8.9475 87.9195 8.5 89 8.5V7.5C87.5805 7.5 86.5028 8.115 85.7069 9.13835C84.9292 10.1382 84.4245 11.5194 84.0746 13.078C83.376 16.19 83.2488 20.2511 83.0011 23.9667L83.9989 24.0333ZM89 8.5C90.054 8.5 90.9191 9.01648 91.6479 9.9811C92.3871 10.9594 92.9601 12.3703 93.3904 14.0608C94.2498 17.4368 94.5 21.7617 94.5 25.5H95.5C95.5 21.7383 95.2502 17.3132 94.3595 13.8142C93.9148 12.0672 93.3004 10.5094 92.4458 9.37827C91.5809 8.23352 90.446 7.5 89 7.5V8.5ZM94.5 25.5C94.5 29.2368 94.2506 35.2241 94.0004 41.1037C93.7507 46.9722 93.5 52.7364 93.5 56H94.5C94.5 52.7636 94.7493 47.0278 94.9995 41.1463C95.2493 35.2759 95.5 29.2632 95.5 25.5H94.5ZM93.5 56C93.5 59.2446 93.5274 62.9001 93.8722 65.7476C94.044 67.1665 94.2989 68.4262 94.6892 69.3441C95.0669 70.2323 95.6642 71 96.6122 71V70C96.3102 70 95.956 69.7677 95.6095 68.9528C95.2756 68.1675 95.0337 67.021 94.865 65.6274C94.5287 62.8499 94.5 59.2554 94.5 56H93.5ZM74.916 88.2774C76.2244 86.3147 80.0402 81.6804 84.7519 78.9319L84.2481 78.0681C79.3598 80.9196 75.4422 85.6853 74.084 87.7226L74.916 88.2774ZM84.7519 78.9319C87.7257 77.1972 89.7937 76.473 91.5855 75.641C93.39 74.8032 94.8385 73.8819 96.4 71.8L95.6 71.2C94.1614 73.1181 92.86 73.9468 91.1644 74.734C89.4563 75.527 87.2743 76.3028 84.2481 78.0681L84.7519 78.9319ZM99.9615 53.6923C101.21 50.6961 102.189 48.7508 103.269 47.3707C104.332 46.0116 105.509 45.1831 107.197 44.4596L106.803 43.5404C104.991 44.3169 103.668 45.2384 102.481 46.7543C101.311 48.2492 100.29 50.3039 99.0385 53.3077L99.9615 53.6923ZM108.501 75.4706C108.404 77.1095 107.797 79.7968 106.85 83.1144C105.908 86.4182 104.643 90.3055 103.252 94.324C100.472 102.361 97.2003 110.903 95.0358 116.314L95.9642 116.686C98.133 111.264 101.411 102.706 104.198 94.651C105.591 90.6237 106.863 86.7172 107.812 83.3887C108.757 80.074 109.396 77.2905 109.499 75.5294L108.501 75.4706ZM95.3833 116.014C91.2273 117.011 80.9291 119.103 72.975 119.501L73.025 120.499C81.0709 120.097 91.4394 117.989 95.6167 116.986L95.3833 116.014ZM72.975 119.501C67.998 119.749 62.5206 119.625 58.1677 119.252C55.9899 119.065 54.1058 118.817 52.7115 118.526C52.013 118.38 51.4522 118.227 51.0441 118.07C50.8402 117.992 50.6858 117.918 50.5757 117.85C50.4607 117.779 50.4224 117.732 50.416 117.723L49.5839 118.277C49.7026 118.455 49.8752 118.592 50.0507 118.701C50.2312 118.812 50.4469 118.912 50.6863 119.004C51.1649 119.187 51.7838 119.354 52.5071 119.505C53.9567 119.808 55.885 120.06 58.0823 120.248C62.4794 120.625 68.002 120.751 73.025 120.499L72.975 119.501ZM50.3363 118.37C51.1689 117.613 53.2818 116.415 56.8665 115.458C60.4351 114.505 65.4278 113.801 71.9848 114L72.0151 113C65.3722 112.799 60.2815 113.511 56.6085 114.492C52.9515 115.468 50.6643 116.72 49.6636 117.63L50.3363 118.37ZM71.9848 114C85.16 114.399 93.0681 116.162 95.3318 116.971L95.6682 116.029C93.2652 115.171 85.24 113.401 72.0151 113L71.9848 114ZM107.197 44.4596C107.548 44.3093 107.81 44.2926 108.009 44.3369C108.205 44.3808 108.393 44.4967 108.574 44.7117C108.954 45.1634 109.241 45.9795 109.408 47.0752L110.396 46.9248C110.223 45.7831 109.903 44.7375 109.339 44.0677C109.048 43.722 108.679 43.4622 108.227 43.361C107.776 43.2602 107.296 43.329 106.803 43.5404L107.197 44.4596ZM109.408 47.0752C109.762 49.4011 109.52 52.6051 109.012 54.8915L109.988 55.1085C110.515 52.7351 110.773 49.4029 110.396 46.9248L109.408 47.0752ZM109.582 46.6158C108.697 47.3525 107 49.5165 107 52.5H108C108 49.8835 109.505 47.9808 110.222 47.3842L109.582 46.6158ZM109.012 54.8915C108.904 55.3786 108.819 55.8957 108.753 56.4395L109.745 56.5605C109.808 56.0423 109.888 55.5579 109.988 55.1085L109.012 54.8915ZM108.753 56.4395C108.469 58.7679 108.52 61.6531 108.584 64.8684C108.647 68.0978 108.724 71.6856 108.501 75.4706L109.499 75.5294C109.724 71.6989 109.647 68.0726 109.583 64.8488C109.52 61.6108 109.472 58.8039 109.745 56.5605L108.753 56.4395ZM107 52.5C107 55.4141 108.225 56.7272 109.111 56.9807L109.386 56.0193C109.107 55.9395 108 55.1859 108 52.5H107ZM18.3111 71.6086C15.0904 69.0486 10.3763 64.5324 6.72176 59.3253C3.05257 54.0972 0.52994 48.2842 1.49164 43.091L0.508353 42.909C-0.529951 48.5158 2.19742 54.6195 5.90323 59.8997C9.62373 65.2009 14.4096 69.7848 17.6889 72.3914L18.3111 71.6086ZM1.49164 43.091C2.09987 39.8066 3.42548 37.6765 5.02781 36.4165C6.63031 35.1563 8.55774 34.728 10.4456 34.9345C14.2675 35.3526 17.7698 38.3327 18.001 42.0312L18.999 41.9688C18.7302 37.6673 14.7325 34.3974 10.5544 33.9405C8.44225 33.7095 6.24468 34.1874 4.40968 35.6304C2.57451 37.0735 1.15012 39.4434 0.508353 42.909L1.49164 43.091ZM18.9472 42.2236C19.671 40.776 21.0961 38.7774 22.9934 37.4886C24.8684 36.2151 27.1748 35.6464 29.7764 36.9472L30.2236 36.0528C27.2252 34.5536 24.5316 35.2349 22.4316 36.6614C20.3539 38.0726 18.829 40.224 18.0528 41.7764L18.9472 42.2236ZM29.7764 36.9472C31.4243 37.7712 32.464 38.9346 33.0566 40.3075C33.6534 41.6905 33.8093 43.3175 33.6277 45.0736C33.2634 48.5942 31.5542 52.5205 29.5742 55.738L30.4258 56.262C32.4458 52.9795 34.2366 48.9058 34.6223 45.1765C34.8157 43.3076 34.6591 41.497 33.9747 39.9113C33.286 38.3154 32.0757 36.9789 30.2236 36.0528L29.7764 36.9472ZM29.5742 55.738C27.6026 58.9418 24.7639 62.0285 22.3133 64.7933C21.0958 66.167 19.9707 67.4655 19.1182 68.6446C18.2761 69.8094 17.6485 70.9252 17.505 71.9293L18.495 72.0707C18.6015 71.3248 19.0989 70.3781 19.9286 69.2304C20.7481 68.097 21.8417 66.833 23.0617 65.4567C25.486 62.7215 28.3974 59.5582 30.4258 56.262L29.5742 55.738ZM24.765 27.076C22.0279 25.3653 14.6625 22.3759 6.89699 24.0107L7.10301 24.9893C14.5375 23.4241 21.6388 26.3013 24.235 27.924L24.765 27.076ZM28.804 20.6031L5.30404 2.60306L4.69596 3.39694L28.196 21.3969L28.804 20.6031ZM32.9341 14.7519C31.6033 12.4231 28.7732 6.8166 27.9903 2.90194L27.0097 3.09806C27.8268 7.1834 30.73 12.9103 32.0659 15.2481L32.9341 14.7519ZM125.429 61.2428C124.69 60.0113 123.551 57.882 122.548 55.5173C121.541 53.1442 120.691 50.5764 120.498 48.4547L119.502 48.5453C119.709 50.8236 120.609 53.5058 121.627 55.9077C122.649 58.318 123.81 60.4887 124.571 61.7572L125.429 61.2428ZM120.498 48.4547C120.262 45.8549 121.451 43.8467 122.891 43.2069C123.596 42.8936 124.386 42.8899 125.177 43.3154C125.982 43.7479 126.825 44.647 127.546 46.2095L128.454 45.7905C127.675 44.103 126.706 43.0021 125.651 42.4346C124.583 41.8601 123.467 41.8564 122.484 42.2931C120.549 43.1533 119.238 45.6451 119.502 48.5453L120.498 48.4547ZM128.354 46.3536C128.987 45.7204 130.084 44.8638 131.292 44.3617C132.505 43.8575 133.723 43.7498 134.723 44.416L135.277 43.584C133.877 42.6502 132.261 42.8758 130.908 43.4383C129.55 44.0029 128.347 44.9463 127.646 45.6464L128.354 46.3536ZM134.723 44.416C135.38 44.8541 135.742 45.3838 135.911 45.9605C136.082 46.5478 136.063 47.2205 135.889 47.9458C135.538 49.4059 134.589 50.9635 133.61 52.1877L134.39 52.8123C135.411 51.5365 136.462 49.8441 136.861 48.1792C137.062 47.342 137.105 46.4835 136.871 45.6801C136.633 44.8662 136.12 44.1459 135.277 43.584L134.723 44.416ZM133.61 52.1877C132.638 53.4019 130.797 55.1223 128.972 56.8216C127.18 58.49 125.384 60.1544 124.6 61.2L125.4 61.8C126.116 60.8456 127.82 59.26 129.653 57.5534C131.453 55.8777 133.362 54.0981 134.39 52.8123L133.61 52.1877ZM140.2 56.9C140.996 57.4973 143.368 58.4066 147.055 57.9969L146.945 57.0031C143.432 57.3934 141.337 56.5027 140.8 56.1L140.2 56.9ZM146.376 65.6707C145.781 64.9899 144.741 63.9005 143.546 62.8279C142.357 61.7606 140.984 60.6831 139.724 60.0528L139.276 60.9472C140.416 61.5169 141.709 62.5227 142.879 63.5721C144.042 64.6162 145.053 65.6768 145.624 66.3293L146.376 65.6707ZM138.884 66.6799L136.384 63.6799L135.616 64.3201L138.116 67.3201L138.884 66.6799ZM97.4729 62.6122C97.4606 62.8299 97.4485 63.0462 97.436 63.2614L98.4343 63.3192C98.4468 63.1031 98.4591 62.8859 98.4713 62.6683L97.4729 62.6122ZM99.0385 53.3077C97.8275 56.214 97.6447 59.5565 97.4729 62.6122L98.4713 62.6683C98.6452 59.5758 98.8281 56.4125 99.9615 53.6923L99.0385 53.3077ZM97.436 63.2614C97.2767 66.0136 97.0701 68.4578 96.1646 70.2772L97.0598 70.7228C98.0726 68.6878 98.2775 66.0284 98.4343 63.3192L97.436 63.2614ZM96.4 71.8C97.2098 70.7202 97.6671 69.3945 97.9482 67.9572C98.2292 66.5206 98.3408 64.9347 98.4343 63.3192L97.436 63.2614C97.3423 64.8804 97.2332 66.4034 96.9668 67.7652C96.7006 69.1261 96.284 70.288 95.6 71.2L96.4 71.8Z" fill="#434F6D"/>
<path d="M102 4.5V36.5L108.5 30.5H143.5C145.709 30.5 147.5 28.7091 147.5 26.5V4.5C147.5 2.29086 145.709 0.5 143.5 0.5H106C103.791 0.5 102 2.29086 102 4.5Z" stroke="#434F6D" stroke-linecap="round"/>
<circle cx="124" cy="15" r="11" fill="#FE56FF"/>
<circle cx="124" cy="15" r="11" fill="url(#paint0_radial_0_1)"/>
<circle cx="124" cy="15" r="11" fill="url(#paint1_radial_0_1)"/>
<circle cx="120" cy="10" r="1" fill="#434F6D"/>
<circle cx="128" cy="10" r="1" fill="#434F6D"/>
<path d="M121.5 12.5C121.5 12.5 122 13.5 123.75 13.5C125.5 13.5 126 12.5 126 12.5" stroke="#434F6D" stroke-linecap="round"/>
<defs>
<radialGradient id="paint0_radial_0_1" cx="0" cy="0" r="1" gradientUnits="userSpaceOnUse" gradientTransform="translate(115.5 29.5) rotate(-59.4703) scale(22.6385 16.7328)">
<stop stop-color="#C7FF22"/>
<stop offset="1" stop-color="#C7FF22" stop-opacity="0"/>
</radialGradient>
<radialGradient id="paint1_radial_0_1" cx="0" cy="0" r="1" gradientUnits="userSpaceOnUse" gradientTransform="translate(127.5 30) rotate(-72.646) scale(25.1446 13.0347)">
<stop stop-color="#1857FF"/>
<stop offset="1" stop-color="#FE56FF" stop-opacity="0"/>
</radialGradient>
</defs>
</svg>
