<svg width="16" height="16" viewBox="0 0 16 16" fill="none" xmlns="http://www.w3.org/2000/svg">
<path d="M8 12.1667V12.175M8 9.24999C7.98466 8.97946 8.05763 8.71128 8.20793 8.48583C8.35823 8.26038 8.57772 8.08987 8.83333 7.99999C9.14656 7.8802 9.42771 7.68935 9.65464 7.44245C9.88157 7.19555 10.0481 6.89934 10.1411 6.57714C10.2341 6.25495 10.2511 5.91556 10.1906 5.58571C10.1302 5.25585 9.99397 4.94453 9.79276 4.67625C9.59155 4.40797 9.33081 4.19006 9.03108 4.03967C8.73134 3.88928 8.40079 3.81052 8.06544 3.80959C7.73009 3.80866 7.3991 3.88558 7.09854 4.03431C6.79797 4.18303 6.53603 4.39949 6.33333 4.66665M15.5 8C15.5 12.1421 12.1421 15.5 8 15.5C3.85786 15.5 0.5 12.1421 0.5 8C0.5 3.85786 3.85786 0.5 8 0.5C12.1421 0.5 15.5 3.85786 15.5 8Z" stroke="#434F6D" stroke-linecap="round" stroke-linejoin="round"/>
</svg>
