<svg width="16" height="16" viewBox="0 0 16 16" fill="none" xmlns="http://www.w3.org/2000/svg">
<path d="M3.83349 9.66668C2.96618 10.1563 2.21019 13.4211 2.426 13.5627C3.09272 14 6.33349 12.1667 6.33349 12.1667M1.3335 8.83334C2.81941 9.00993 4.2027 9.68129 5.26079 10.7394C6.31888 11.7975 6.99024 13.1808 7.16683 14.6667C7.90343 14.242 8.51957 13.6365 8.95702 12.9075C9.39446 12.1784 9.63877 11.3498 9.66683 10.5C11.0661 10.0078 12.288 9.11167 13.178 7.92502C14.0679 6.73837 14.5861 5.31446 14.6668 3.83334C14.6668 3.1703 14.4034 2.53442 13.9346 2.06558C13.4658 1.59674 12.8299 1.33334 12.1668 1.33334C10.6857 1.4141 9.2618 1.93223 8.07515 2.82222C6.8885 3.71221 5.9924 4.93409 5.50016 6.33334C4.65038 6.36141 3.82179 6.60571 3.09272 7.04315C2.36364 7.4806 1.75815 8.09674 1.3335 8.83334ZM11.3335 5.50001C11.3335 5.96025 10.9604 6.33334 10.5002 6.33334C10.0399 6.33334 9.66683 5.96025 9.66683 5.50001C9.66683 5.03977 10.0399 4.66668 10.5002 4.66668C10.9604 4.66668 11.3335 5.03977 11.3335 5.50001Z" stroke="white" stroke-linecap="round" stroke-linejoin="round"/>
</svg>
