<svg width="30" height="30" viewBox="0 0 30 30" fill="none" xmlns="http://www.w3.org/2000/svg">
<rect width="30" height="30" rx="8" fill="white"/>
<path d="M11.8419 15.6711L10.4998 15L11.8419 14.3289C11.5956 13.8374 11.0872 13.5 10.5 13.5C9.67157 13.5 9 14.1716 9 15C9 15.8284 9.67157 16.5 10.5 16.5C11.0872 16.5 11.5956 16.1626 11.8419 15.6711Z" fill="#1857FF"/>
<path d="M20.4998 10.5C20.4998 11.3284 19.8282 12 18.9998 12C18.1713 12 17.4998 11.3284 17.4998 10.5C17.4998 9.67157 18.1713 9 18.9998 9C19.8282 9 20.4998 9.67157 20.4998 10.5Z" fill="#1857FF"/>
<path d="M20.4998 19C20.4998 19.8284 19.8282 20.5 18.9998 20.5C18.1713 20.5 17.4998 19.8284 17.4998 19C17.4998 18.1716 18.1713 17.5 18.9998 17.5C19.8282 17.5 20.4998 18.1716 20.4998 19Z" fill="#1857FF"/>
<path d="M17.4998 18.5L11.8419 15.6711M17.4998 11.5L11.8419 14.3289M11.8419 15.6711L10.4998 15L11.8419 14.3289M11.8419 15.6711C11.5956 16.1626 11.0872 16.5 10.5 16.5C9.67157 16.5 9 15.8284 9 15C9 14.1716 9.67157 13.5 10.5 13.5C11.0872 13.5 11.5956 13.8374 11.8419 14.3289M11.8419 15.6711C11.9431 15.4691 12 15.2412 12 15C12 14.7588 11.9431 14.5309 11.8419 14.3289M20.4998 10.5C20.4998 11.3284 19.8282 12 18.9998 12C18.1713 12 17.4998 11.3284 17.4998 10.5C17.4998 9.67157 18.1713 9 18.9998 9C19.8282 9 20.4998 9.67157 20.4998 10.5ZM20.4998 19C20.4998 19.8284 19.8282 20.5 18.9998 20.5C18.1713 20.5 17.4998 19.8284 17.4998 19C17.4998 18.1716 18.1713 17.5 18.9998 17.5C19.8282 17.5 20.4998 18.1716 20.4998 19Z" stroke="#1857FF"/>
</svg>
