<svg width="30" height="30" viewBox="0 0 30 30" fill="none" xmlns="http://www.w3.org/2000/svg">
<rect width="30" height="30" rx="8" fill="#1857FF"/>
<path d="M12.8419 15.6711L11.4998 15L12.8419 14.3289C12.5956 13.8374 12.0872 13.5 11.5 13.5C10.6716 13.5 10 14.1716 10 15C10 15.8284 10.6716 16.5 11.5 16.5C12.0872 16.5 12.5956 16.1626 12.8419 15.6711Z" fill="white"/>
<path d="M21.4998 10.5C21.4998 11.3284 20.8282 12 19.9998 12C19.1713 12 18.4998 11.3284 18.4998 10.5C18.4998 9.67157 19.1713 9 19.9998 9C20.8282 9 21.4998 9.67157 21.4998 10.5Z" fill="white"/>
<path d="M21.4998 19C21.4998 19.8284 20.8282 20.5 19.9998 20.5C19.1713 20.5 18.4998 19.8284 18.4998 19C18.4998 18.1716 19.1713 17.5 19.9998 17.5C20.8282 17.5 21.4998 18.1716 21.4998 19Z" fill="white"/>
<path d="M18.4998 18.5L12.8419 15.6711M18.4998 11.5L12.8419 14.3289M12.8419 15.6711L11.4998 15L12.8419 14.3289M12.8419 15.6711C12.5956 16.1626 12.0872 16.5 11.5 16.5C10.6716 16.5 10 15.8284 10 15C10 14.1716 10.6716 13.5 11.5 13.5C12.0872 13.5 12.5956 13.8374 12.8419 14.3289M12.8419 15.6711C12.9431 15.4691 13 15.2412 13 15C13 14.7588 12.9431 14.5309 12.8419 14.3289M21.4998 10.5C21.4998 11.3284 20.8282 12 19.9998 12C19.1713 12 18.4998 11.3284 18.4998 10.5C18.4998 9.67157 19.1713 9 19.9998 9C20.8282 9 21.4998 9.67157 21.4998 10.5ZM21.4998 19C21.4998 19.8284 20.8282 20.5 19.9998 20.5C19.1713 20.5 18.4998 19.8284 18.4998 19C18.4998 18.1716 19.1713 17.5 19.9998 17.5C20.8282 17.5 21.4998 18.1716 21.4998 19Z" stroke="white"/>
</svg>
