<svg width="30" height="27" viewBox="0 0 30 27" fill="none" xmlns="http://www.w3.org/2000/svg">
<path d="M14.0517 0.832656C14.3564 -0.0774108 15.6436 -0.0774145 15.9483 0.832652L18.5882 8.71867C18.7247 9.12638 19.1066 9.40122 19.5365 9.40122H28.0147C28.9906 9.40122 29.3885 10.656 28.591 11.2185L21.7839 16.0186C21.4229 16.2732 21.2717 16.7345 21.4119 17.1533L24.024 24.9561C24.3307 25.8722 23.2889 26.6476 22.4994 26.0908L15.5763 21.2088C15.2307 20.9651 14.7693 20.9651 14.4237 21.2088L7.50058 26.0908C6.71108 26.6476 5.66933 25.8722 5.97601 24.9561L8.58812 17.1533C8.72834 16.7345 8.57714 16.2732 8.21614 16.0186L1.40905 11.2185C0.611476 10.656 1.00941 9.40122 1.98535 9.40122H10.4635C10.8934 9.40122 11.2753 9.12639 11.4118 8.71867L14.0517 0.832656Z" fill="white" fill-opacity="0.5"/>
<path d="M14.5259 0.991381C14.6782 0.536343 15.3218 0.536349 15.4741 0.991377L18.1141 8.87739C18.3188 9.48897 18.8916 9.90122 19.5365 9.90122H28.0147C28.5026 9.90122 28.7016 10.5286 28.3028 10.8098L21.4957 15.61C20.9542 15.9919 20.7274 16.6837 20.9377 17.3121L23.5499 25.1149C23.7032 25.5729 23.1823 25.9606 22.7876 25.6822L15.8644 20.8002C15.3461 20.4347 14.6539 20.4347 14.1356 20.8002L7.21243 25.6822C6.81768 25.9606 6.29681 25.5729 6.45014 25.1149L9.06226 17.3121C9.27259 16.6837 9.04578 15.9919 8.50429 15.61L1.6972 10.8098C1.29841 10.5286 1.49738 9.90122 1.98535 9.90122H10.4635C11.1084 9.90122 11.6812 9.48897 11.8859 8.8774L14.5259 0.991381Z" stroke="white" stroke-opacity="0.3"/>
</svg>
