<svg width="16" height="16" viewBox="0 0 16 16" fill="none" xmlns="http://www.w3.org/2000/svg">
<path d="M9.66659 1.33334H14.6666V6.33334H9.66659V1.33334Z" stroke="#434F6D" stroke-linecap="round" stroke-linejoin="round"/>
<path d="M1.33325 9.66668H6.33325V14.6667H1.33325V9.66668Z" stroke="#434F6D" stroke-linecap="round" stroke-linejoin="round"/>
<path d="M12.1666 14.6667C13.5473 14.6667 14.6666 13.5474 14.6666 12.1667C14.6666 10.786 13.5473 9.66668 12.1666 9.66668C10.7859 9.66668 9.66659 10.786 9.66659 12.1667C9.66659 13.5474 10.7859 14.6667 12.1666 14.6667Z" stroke="#434F6D" stroke-linecap="round" stroke-linejoin="round"/>
<path d="M3.83325 6.33334C5.21396 6.33334 6.33325 5.21406 6.33325 3.83334C6.33325 2.45263 5.21396 1.33334 3.83325 1.33334C2.45254 1.33334 1.33325 2.45263 1.33325 3.83334C1.33325 5.21406 2.45254 6.33334 3.83325 6.33334Z" stroke="#434F6D" stroke-linecap="round" stroke-linejoin="round"/>
</svg>
