<svg width="16" height="12" viewBox="0 0 16 12" fill="none" xmlns="http://www.w3.org/2000/svg">
<path d="M14.6666 0.673342C14 1.00001 13.3466 1.13268 12.6666 1.33334C11.9193 0.490009 10.8113 0.443342 9.74665 0.842009C8.68198 1.24068 7.98465 2.21534 7.99998 3.33334V4.00001C5.83665 4.05534 3.90998 3.07001 2.66665 1.33334C2.66665 1.33334 -0.121354 6.28868 5.33331 8.66668C4.08531 9.49801 2.84065 10.0587 1.33331 10C3.53865 11.202 5.94198 11.6153 8.02265 11.0113C10.4093 10.318 12.3706 8.52934 13.1233 5.85001C13.3478 5.03512 13.4593 4.19325 13.4546 3.34801C13.4533 3.18201 14.4613 1.50001 14.6666 0.672675V0.673342Z" stroke="#1857FF" stroke-linecap="round" stroke-linejoin="round"/>
</svg>
