<svg width="14" height="14" viewBox="0 0 14 14" fill="none" xmlns="http://www.w3.org/2000/svg">
<path d="M5 5.66666C5 5.75506 5.03512 5.83985 5.09763 5.90236C5.16014 5.96487 5.24493 5.99999 5.33333 5.99999C5.42174 5.99999 5.50652 5.96487 5.56904 5.90236C5.63155 5.83985 5.66667 5.75506 5.66667 5.66666V4.99999C5.66667 4.91158 5.63155 4.8268 5.56904 4.76429C5.50652 4.70178 5.42174 4.66666 5.33333 4.66666C5.24493 4.66666 5.16014 4.70178 5.09763 4.76429C5.03512 4.8268 5 4.91158 5 4.99999V5.66666ZM5 5.66666C5 6.55071 5.35119 7.39856 5.97631 8.02368C6.60143 8.6488 7.44928 8.99999 8.33333 8.99999M8.33333 8.99999H9C9.08841 8.99999 9.17319 8.96487 9.2357 8.90236C9.29821 8.83985 9.33333 8.75506 9.33333 8.66666C9.33333 8.57825 9.29821 8.49347 9.2357 8.43095C9.17319 8.36844 9.08841 8.33332 9 8.33332H8.33333C8.24493 8.33332 8.16014 8.36844 8.09763 8.43095C8.03512 8.49347 8 8.57825 8 8.66666C8 8.75506 8.03512 8.83985 8.09763 8.90236C8.16014 8.96487 8.24493 8.99999 8.33333 8.99999ZM1 13.0001L2.1 10.4668C1.25844 9.27217 0.881778 7.81149 1.0407 6.35887C1.19961 4.90625 1.88319 3.56156 2.96314 2.57715C4.04309 1.59273 5.44517 1.03627 6.90625 1.0122C8.36734 0.988122 9.78699 1.49808 10.8988 2.44638C12.0106 3.39468 12.7381 4.71612 12.9448 6.16271C13.1515 7.60931 12.8231 9.08161 12.0214 10.3033C11.2197 11.525 9.99963 12.4121 8.59026 12.7982C7.1809 13.1843 5.67908 13.0427 4.36667 12.4001L1 13.0001Z" stroke="#1857FF" stroke-linecap="round" stroke-linejoin="round"/>
</svg>
